<?xml version="1.0"?>
<svg xmlns="http://www.w3.org/2000/svg" xmlns:xlink="http://www.w3.org/1999/xlink" version="1.1" id="Capa_1" x="0px" y="0px" viewBox="0 0 490.667 490.667" style="enable-background:new 0 0 490.667 490.667;" xml:space="preserve" width="512px" height="512px"><g><g>
	<g>
		<path d="M480,213.333c5.888,0,10.667-4.779,10.667-10.667v-85.333c0-5.888-4.779-10.667-10.667-10.667H10.667    C4.779,106.667,0,111.445,0,117.333v85.333c0,5.888,4.779,10.667,10.667,10.667c17.643,0,32,14.357,32,32    c0,17.643-14.357,32-32,32C4.779,277.333,0,282.112,0,288v85.333C0,379.221,4.779,384,10.667,384H480    c5.888,0,10.667-4.779,10.667-10.667V288c0-5.888-4.779-10.667-10.667-10.667c-17.643,0-32-14.357-32-32    C448,227.691,462.357,213.333,480,213.333z M469.333,297.6v65.067h-448V297.6C45.653,292.651,64,271.083,64,245.333    s-18.347-47.317-42.667-52.267V128h448v65.067c-24.32,4.949-42.667,26.517-42.667,52.267S445.013,292.651,469.333,297.6z" data-original="#000000" class="active-path" fill="#000000"/>
	</g>
</g><g>
	<g>
		<path d="M205.248,192.32c-5.824-1.365-11.52,2.027-12.928,7.765l-10.987,43.947l-10.987-43.947    c-1.429-5.717-7.275-9.131-12.928-7.765c-5.717,1.429-9.173,7.211-7.765,12.928l21.333,85.333    c1.173,4.757,5.461,8.085,10.347,8.085c4.885,0,9.173-3.328,10.347-8.085l21.333-85.333    C214.443,199.552,210.987,193.749,205.248,192.32z" data-original="#000000" class="active-path" fill="#000000"/>
	</g>
</g><g>
	<g>
		<path d="M245.333,192c-5.888,0-10.667,4.779-10.667,10.667V288c0,5.888,4.779,10.667,10.667,10.667S256,293.888,256,288v-85.333    C256,196.779,251.221,192,245.333,192z" data-original="#000000" class="active-path" fill="#000000"/>
	</g>
</g><g>
	<g>
		<path d="M309.333,192H288c-5.888,0-10.667,4.779-10.667,10.667V288c0,5.888,4.779,10.667,10.667,10.667    s10.667-4.779,10.667-10.667v-32h10.667c17.643,0,32-14.357,32-32C341.333,206.357,326.976,192,309.333,192z M309.333,234.667    h-10.667v-21.333h10.667c5.867,0,10.667,4.8,10.667,10.667C320,229.867,315.2,234.667,309.333,234.667z" data-original="#000000" class="active-path" fill="#000000"/>
	</g>
</g></g> </svg>
