<?xml version="1.0"?>
<svg xmlns="http://www.w3.org/2000/svg" height="512px" viewBox="0 -9 444.52367 444" width="512px"><g><path d="m7.929688 426.261719h339.410156c2.09375-.027344 4.089844-.902344 5.53125-2.417969 1.441406-1.519531 2.207031-3.554688 2.128906-5.648438v-112.933593h69.5625c4.574219-.125 8.261719-3.777344 8.4375-8.34375v-105.449219c-.1875-4.542969-3.890625-8.144531-8.4375-8.207031h-11.5625v-88.597657c18.949219-3.101562 32.519531-19.984374 31.46875-39.15625-1.050781-19.171874-16.382812-34.472656-35.558594-35.484374-19.175781-1.007813-36.027344 12.59375-39.089844 31.550781-3.058593 18.957031 8.660157 37.171875 27.179688 42.246093v89.441407h-42v-141.140625c.054688-11.109375-4.332031-21.777344-12.179688-29.636719-7.847656-7.859375-18.511718-12.261719-29.621093-12.222656h-271.132813c-11.136718-.046875-21.832031 4.339843-29.726562 12.195312-7.890625 7.851563-12.3320315 18.527344-12.339844 29.664063v376.074218c-.0351562 4.417969 3.511719 8.027344 7.929688 8.066407zm377.410156-368.691407c.003906-11.921874 9.667968-21.582031 21.589844-21.582031 11.921874.003907 21.585937 9.667969 21.582031 21.589844 0 11.921875-9.664063 21.585937-21.585938 21.585937-11.917969-.015624-21.574219-9.675781-21.585937-21.59375zm31.660156 141.691407v90h-62v-90zm-401-157.140625c.003906-6.894532 2.757812-13.5 7.648438-18.355469 4.894531-4.855469 11.523437-7.554687 18.417968-7.503906h271.132813c6.867187-.042969 13.460937 2.667969 18.3125 7.53125 4.847656 4.859375 7.546875 11.460937 7.488281 18.328125v368.140625h-323zm0 0" data-original="#000000" class="active-path" fill="#000000"/><path d="m312 155.261719c0-4.417969-3.582031-8-8-8h-252c-4.417969 0-8 3.582031-8 8v128c0 4.417969 3.582031 8 8 8h252c4.417969 0 8-3.582031 8-8zm-16 119h-236v-111h236zm0 0" data-original="#000000" class="active-path" fill="#000000"/><path d="m156.386719 210.460938c5.144531 0 9.613281-2.730469 9.613281-5.960938v-7.238281h19v7.441406l-27.804688 48.371094c-.550781.976562-.828124 2.082031-.800781 3.199219 0 5.59375 6.230469 9.492187 11.800781 9.492187 2.714844 0 4.511719-.871094 5.464844-2.660156l26.632813-50.976563c.871093-1.628906 3.707031-7.234375 3.707031-11.046875v-14.21875c0-3.070312-4.636719-5.597656-8.234375-5.597656h-40.398437c-4.15625 0-8.367188 2.585937-8.367188 5.597656v17.636719c0 3.339844 4.191406 5.960938 9.386719 5.960938zm0 0" data-original="#000000" class="active-path" fill="#000000"/><path d="m77.886719 210.460938c5.144531 0 9.113281-2.730469 9.113281-5.960938v-7.238281h20v7.441406l-28.066406 48.371094c-.585938.964843-.90625 2.070312-.925782 3.199219 0 5.59375 6.167969 9.492187 11.734376 9.492187 2.714843 0 4.476562-.871094 5.433593-2.660156l26.375-50.976563c.867188-1.628906 3.449219-7.234375 3.449219-11.046875v-14.21875c0-3.070312-4.15625-5.597656-7.75-5.597656h-40.402344c-4.15625 0-7.847656 2.585937-7.847656 5.597656v17.636719c0 3.339844 3.691406 5.960938 8.886719 5.960938zm0 0" data-original="#000000" class="active-path" fill="#000000"/><path d="m239.386719 210.460938c5.144531 0 9.613281-2.730469 9.613281-5.960938v-7.238281h19v7.441406l-27.773438 48.371094c-.542968.976562-.8125 2.082031-.777343 3.199219 0 5.59375 6.238281 9.492187 11.804687 9.492187 2.714844 0 4.515625-.871094 5.46875-2.660156l26.601563-50.976563c.867187-1.628906 3.675781-7.234375 3.675781-11.046875v-14.21875c0-3.070312-4.570312-5.597656-8.167969-5.597656h-40.398437c-4.160156 0-8.4375 2.585937-8.4375 5.597656v17.636719c.003906 3.339844 4.195312 5.960938 9.390625 5.960938zm0 0" data-original="#000000" class="active-path" fill="#000000"/><path d="m312 327.261719c0-4.417969-3.582031-8-8-8h-252c-4.417969 0-8 3.582031-8 8v46c0 4.417969 3.582031 8 8 8h252c4.417969 0 8-3.582031 8-8zm-16 37h-236v-29h236zm0 0" data-original="#000000" class="active-path" fill="#000000"/><path d="m312 65.261719c0-4.417969-3.582031-8-8-8h-252c-4.417969 0-8 3.582031-8 8v46c0 4.417969 3.582031 8 8 8h252c4.417969 0 8-3.582031 8-8zm-16 37h-236v-29h236zm0 0" data-original="#000000" class="active-path" fill="#000000"/></g> </svg>
